<mxfile host="app.diagrams.net" modified="2024-07-29T17:39:01.706Z" agent="Mozilla/5.0 (Macintosh; Intel Mac OS X 10.15; rv:128.0) Gecko/20100101 Firefox/128.0" version="24.4.6" etag="mC8tZkrwG0p-DykLl8UY" type="github">
  <diagram name="Page-1" id="krXhEt947qqNCE0sl2nM">
    <mxGraphModel>
      <root>
        <mxCell id="0" />
        <mxCell id="1" parent="0" />
      </root>
    </mxGraphModel>
  </diagram>
</mxfile>
